# This file uses centimeters as units for non-parametric coordinates.

mtllib thing.mtl
g default
v -3.646447 0.000000 -0.588569
v -3.646447 -0.588569 -0.000000
v -3.646447 -0.000000 0.588569
v -3.646447 0.588569 -0.000000
v -5.000000 -0.000000 -0.000000
vt 0.500000 0.000000
vt 0.750000 0.250000
vt 0.500000 0.500000
vt 0.250000 0.250000
vt 0.250000 0.500000
vt 0.375000 0.500000
vt 0.500000 1.000000
vt 0.500000 0.500000
vt 0.625000 0.500000
vt 0.750000 0.500000
vn 1.000000 0.000000 0.000000
vn 1.000000 0.000000 0.000000
vn 1.000000 0.000000 0.000000
vn 1.000000 0.000000 0.000000
vn -0.293894 -0.675879 -0.675880
vn -0.293894 -0.675879 -0.675880
vn -0.293894 -0.675879 -0.675880
vn -0.293894 -0.675879 0.675880
vn -0.293894 -0.675879 0.675880
vn -0.293894 -0.675879 0.675880
vn -0.293894 0.675879 0.675880
vn -0.293894 0.675879 0.675880
vn -0.293894 0.675879 0.675880
vn -0.293894 0.675879 -0.675880
vn -0.293894 0.675879 -0.675880
vn -0.293894 0.675879 -0.675880
s off
g Heada
usemtl blinn1SG
f 1/1/1 4/2/2 3/3/3 2/4/4
f 1/5/5 2/6/6 5/7/7
f 2/6/8 3/8/9 5/7/10
f 3/8/11 4/9/12 5/7/13
f 4/9/14 1/10/15 5/7/16
g default
v -3.405533 -0.432300 0.000000
v -2.594467 -0.526886 0.000000
v -3.405533 0.000000 0.432300
v -2.594467 0.000000 0.526886
v -3.405533 0.432300 0.000000
v -2.594467 0.526886 0.000000
v -3.405533 0.000000 -0.432300
v -2.594467 0.000000 -0.526886
vt 0.375000 0.000000
vt 0.625000 0.000000
vt 0.625000 0.250000
vt 0.375000 0.250000
vt 0.625000 0.500000
vt 0.375000 0.500000
vt 0.625000 0.750000
vt 0.375000 0.750000
vt 0.625000 1.000000
vt 0.375000 1.000000
vt 0.875000 0.000000
vt 0.875000 0.250000
vt 0.125000 0.000000
vt 0.125000 0.250000
vn -0.082184 -0.704715 0.704715
vn -0.082184 -0.704715 0.704715
vn -0.082184 -0.704715 0.704715
vn -0.082184 -0.704715 0.704715
vn -0.082184 0.704715 0.704715
vn -0.082184 0.704715 0.704715
vn -0.082184 0.704715 0.704715
vn -0.082184 0.704715 0.704715
vn -0.082184 0.704715 -0.704715
vn -0.082184 0.704715 -0.704715
vn -0.082184 0.704715 -0.704715
vn -0.082184 0.704715 -0.704715
vn -0.082184 -0.704715 -0.704715
vn -0.082184 -0.704715 -0.704715
vn -0.082184 -0.704715 -0.704715
vn -0.082184 -0.704715 -0.704715
vn 1.000000 0.000000 0.000000
vn 1.000000 0.000000 0.000000
vn 1.000000 0.000000 0.000000
vn 1.000000 0.000000 0.000000
vn -1.000000 0.000000 0.000000
vn -1.000000 0.000000 0.000000
vn -1.000000 0.000000 0.000000
vn -1.000000 0.000000 0.000000
s off
g B1a
usemtl lambert3SG
f 6/11/17 7/12/18 9/13/19 8/14/20
f 8/14/21 9/13/22 11/15/23 10/16/24
f 10/16/25 11/15/26 13/17/27 12/18/28
f 12/18/29 13/17/30 7/19/31 6/20/32
f 7/12/33 13/21/34 11/22/35 9/13/36
f 12/23/37 6/11/38 8/14/39 10/24/40
g default
v -2.408007 -0.417679 0.022817
v -1.597570 -0.517190 0.014754
v -2.401158 0.013922 0.455761
v -1.589223 0.008844 0.542425
v -2.402741 0.446904 0.024148
v -1.591153 0.536561 0.016376
v -2.409590 0.015304 -0.408796
v -1.599500 0.010528 -0.511295
vt 0.375000 0.000000
vt 0.625000 0.000000
vt 0.625000 0.250000
vt 0.375000 0.250000
vt 0.625000 0.500000
vt 0.375000 0.500000
vt 0.625000 0.750000
vt 0.375000 0.750000
vt 0.625000 1.000000
vt 0.375000 1.000000
vt 0.875000 0.000000
vt 0.875000 0.250000
vt 0.125000 0.000000
vt 0.125000 0.250000
vn -0.079597 -0.705328 0.704398
vn -0.079597 -0.705328 0.704398
vn -0.079597 -0.705328 0.704398
vn -0.079597 -0.705328 0.704398
vn -0.071014 0.704074 0.706567
vn -0.071014 0.704074 0.706567
vn -0.071014 0.704074 0.706567
vn -0.071014 0.704074 0.706567
vn -0.084759 0.706327 -0.702793
vn -0.084759 0.706327 -0.702793
vn -0.084759 0.706327 -0.702793
vn -0.084759 0.706327 -0.702793
vn -0.093342 -0.703075 -0.704963
vn -0.093342 -0.703075 -0.704963
vn -0.093342 -0.703075 -0.704963
vn -0.093342 -0.703075 -0.704963
vn 0.999934 -0.006075 -0.009762
vn 0.999934 -0.006075 -0.009762
vn 0.999934 -0.006075 -0.009762
vn 0.999934 -0.006075 -0.009762
vn -0.999934 0.006075 0.009762
vn -0.999934 0.006075 0.009762
vn -0.999934 0.006075 0.009762
vn -0.999934 0.006075 0.009762
s off
g B2a
usemtl lambert3SG
f 14/25/41 15/26/42 17/27/43 16/28/44
f 16/28/45 17/27/46 19/29/47 18/30/48
f 18/30/49 19/29/50 21/31/51 20/32/52
f 20/32/53 21/31/54 15/33/55 14/34/56
f 15/26/57 21/35/58 19/36/59 17/27/60
f 20/37/61 14/25/62 16/28/63 18/38/64
g default
v -1.405533 -0.432300 0.000000
v -0.594467 -0.526886 0.000000
v -1.405533 0.000000 0.432300
v -0.594467 0.000000 0.526886
v -1.405533 0.432300 0.000000
v -0.594467 0.526886 0.000000
v -1.405533 0.000000 -0.432300
v -0.594467 0.000000 -0.526886
vt 0.375000 0.000000
vt 0.625000 0.000000
vt 0.625000 0.250000
vt 0.375000 0.250000
vt 0.625000 0.500000
vt 0.375000 0.500000
vt 0.625000 0.750000
vt 0.375000 0.750000
vt 0.625000 1.000000
vt 0.375000 1.000000
vt 0.875000 0.000000
vt 0.875000 0.250000
vt 0.125000 0.000000
vt 0.125000 0.250000
vn -0.082184 -0.704715 0.704715
vn -0.082184 -0.704715 0.704715
vn -0.082184 -0.704715 0.704715
vn -0.082184 -0.704715 0.704715
vn -0.082184 0.704715 0.704715
vn -0.082184 0.704715 0.704715
vn -0.082184 0.704715 0.704715
vn -0.082184 0.704715 0.704715
vn -0.082184 0.704715 -0.704715
vn -0.082184 0.704715 -0.704715
vn -0.082184 0.704715 -0.704715
vn -0.082184 0.704715 -0.704715
vn -0.082184 -0.704715 -0.704715
vn -0.082184 -0.704715 -0.704715
vn -0.082184 -0.704715 -0.704715
vn -0.082184 -0.704715 -0.704715
vn 1.000000 0.000000 0.000000
vn 1.000000 0.000000 0.000000
vn 1.000000 0.000000 0.000000
vn 1.000000 0.000000 0.000000
vn -1.000000 0.000000 0.000000
vn -1.000000 0.000000 0.000000
vn -1.000000 0.000000 0.000000
vn -1.000000 0.000000 0.000000
s off
g B3a
usemtl lambert3SG
f 22/39/65 23/40/66 25/41/67 24/42/68
f 24/42/69 25/41/70 27/43/71 26/44/72
f 26/44/73 27/43/74 29/45/75 28/46/76
f 28/46/77 29/45/78 23/47/79 22/48/80
f 23/40/81 29/49/82 27/50/83 25/41/84
f 28/51/85 22/39/86 24/42/87 26/52/88
g default
v -0.405533 -0.432300 0.000000
v 0.405533 -0.526886 0.000000
v -0.405533 0.000000 0.432300
v 0.405533 0.000000 0.526886
v -0.405533 0.432300 0.000000
v 0.405533 0.526886 0.000000
v -0.405533 0.000000 -0.432300
v 0.405533 0.000000 -0.526886
vt 0.375000 0.000000
vt 0.625000 0.000000
vt 0.625000 0.250000
vt 0.375000 0.250000
vt 0.625000 0.500000
vt 0.375000 0.500000
vt 0.625000 0.750000
vt 0.375000 0.750000
vt 0.625000 1.000000
vt 0.375000 1.000000
vt 0.875000 0.000000
vt 0.875000 0.250000
vt 0.125000 0.000000
vt 0.125000 0.250000
vn -0.082184 -0.704715 0.704715
vn -0.082184 -0.704715 0.704715
vn -0.082184 -0.704715 0.704715
vn -0.082184 -0.704715 0.704715
vn -0.082184 0.704715 0.704715
vn -0.082184 0.704715 0.704715
vn -0.082184 0.704715 0.704715
vn -0.082184 0.704715 0.704715
vn -0.082184 0.704715 -0.704715
vn -0.082184 0.704715 -0.704715
vn -0.082184 0.704715 -0.704715
vn -0.082184 0.704715 -0.704715
vn -0.082184 -0.704715 -0.704715
vn -0.082184 -0.704715 -0.704715
vn -0.082184 -0.704715 -0.704715
vn -0.082184 -0.704715 -0.704715
vn 1.000000 0.000000 0.000000
vn 1.000000 0.000000 0.000000
vn 1.000000 0.000000 0.000000
vn 1.000000 0.000000 0.000000
vn -1.000000 0.000000 0.000000
vn -1.000000 0.000000 0.000000
vn -1.000000 0.000000 0.000000
vn -1.000000 0.000000 0.000000
s off
g B4a
usemtl lambert3SG
f 30/53/89 31/54/90 33/55/91 32/56/92
f 32/56/93 33/55/94 35/57/95 34/58/96
f 34/58/97 35/57/98 37/59/99 36/60/100
f 36/60/101 37/59/102 31/61/103 30/62/104
f 31/54/105 37/63/106 35/64/107 33/55/108
f 36/65/109 30/53/110 32/56/111 34/66/112
g default
v 0.594467 0.000000 0.432300
v 1.405533 0.000000 0.526886
v 0.594467 0.432300 0.000000
v 1.405533 0.526886 0.000000
v 0.594467 0.000000 -0.432300
v 1.405533 0.000000 -0.526886
v 0.594467 -0.432300 0.000000
v 1.405533 -0.526886 0.000000
vt 0.375000 0.000000
vt 0.625000 0.000000
vt 0.625000 0.250000
vt 0.375000 0.250000
vt 0.625000 0.500000
vt 0.375000 0.500000
vt 0.625000 0.750000
vt 0.375000 0.750000
vt 0.625000 1.000000
vt 0.375000 1.000000
vt 0.875000 0.000000
vt 0.875000 0.250000
vt 0.125000 0.000000
vt 0.125000 0.250000
vn -0.082184 0.704715 0.704715
vn -0.082184 0.704715 0.704715
vn -0.082184 0.704715 0.704715
vn -0.082184 0.704715 0.704715
vn -0.082184 0.704715 -0.704715
vn -0.082184 0.704715 -0.704715
vn -0.082184 0.704715 -0.704715
vn -0.082184 0.704715 -0.704715
vn -0.082184 -0.704715 -0.704715
vn -0.082184 -0.704715 -0.704715
vn -0.082184 -0.704715 -0.704715
vn -0.082184 -0.704715 -0.704715
vn -0.082184 -0.704715 0.704715
vn -0.082184 -0.704715 0.704715
vn -0.082184 -0.704715 0.704715
vn -0.082184 -0.704715 0.704715
vn 1.000000 0.000000 0.000000
vn 1.000000 0.000000 0.000000
vn 1.000000 0.000000 0.000000
vn 1.000000 0.000000 0.000000
vn -1.000000 0.000000 0.000000
vn -1.000000 0.000000 0.000000
vn -1.000000 0.000000 0.000000
vn -1.000000 0.000000 0.000000
s off
g B5a
usemtl lambert3SG
f 38/67/113 39/68/114 41/69/115 40/70/116
f 40/70/117 41/69/118 43/71/119 42/72/120
f 42/72/121 43/71/122 45/73/123 44/74/124
f 44/74/125 45/73/126 39/75/127 38/76/128
f 39/68/129 45/77/130 43/78/131 41/69/132
f 44/79/133 38/67/134 40/70/135 42/80/136
g default
v 1.594467 -0.432300 0.000000
v 2.405533 -0.526886 0.000000
v 1.594467 0.000000 0.432300
v 2.405533 0.000000 0.526886
v 1.594467 0.432300 0.000000
v 2.405533 0.526886 0.000000
v 1.594467 0.000000 -0.432300
v 2.405533 0.000000 -0.526886
vt 0.375000 0.000000
vt 0.625000 0.000000
vt 0.625000 0.250000
vt 0.375000 0.250000
vt 0.625000 0.500000
vt 0.375000 0.500000
vt 0.625000 0.750000
vt 0.375000 0.750000
vt 0.625000 1.000000
vt 0.375000 1.000000
vt 0.875000 0.000000
vt 0.875000 0.250000
vt 0.125000 0.000000
vt 0.125000 0.250000
vn -0.082184 -0.704715 0.704715
vn -0.082184 -0.704715 0.704715
vn -0.082184 -0.704715 0.704715
vn -0.082184 -0.704715 0.704715
vn -0.082184 0.704715 0.704715
vn -0.082184 0.704715 0.704715
vn -0.082184 0.704715 0.704715
vn -0.082184 0.704715 0.704715
vn -0.082184 0.704715 -0.704715
vn -0.082184 0.704715 -0.704715
vn -0.082184 0.704715 -0.704715
vn -0.082184 0.704715 -0.704715
vn -0.082184 -0.704715 -0.704715
vn -0.082184 -0.704715 -0.704715
vn -0.082184 -0.704715 -0.704715
vn -0.082184 -0.704715 -0.704715
vn 1.000000 0.000000 0.000000
vn 1.000000 0.000000 0.000000
vn 1.000000 0.000000 0.000000
vn 1.000000 0.000000 0.000000
vn -1.000000 0.000000 0.000000
vn -1.000000 0.000000 0.000000
vn -1.000000 0.000000 0.000000
vn -1.000000 0.000000 0.000000
s off
g B6a
usemtl lambert3SG
f 46/81/137 47/82/138 49/83/139 48/84/140
f 48/84/141 49/83/142 51/85/143 50/86/144
f 50/86/145 51/85/146 53/87/147 52/88/148
f 52/88/149 53/87/150 47/89/151 46/90/152
f 47/82/153 53/91/154 51/92/155 49/83/156
f 52/93/157 46/81/158 48/84/159 50/94/160
g default
v 2.594467 -0.432300 0.000000
v 3.405533 -0.526886 0.000000
v 2.594467 0.000000 0.432300
v 3.405533 0.000000 0.526886
v 2.594467 0.432300 0.000000
v 3.405533 0.526886 0.000000
v 2.594467 0.000000 -0.432300
v 3.405533 0.000000 -0.526886
vt 0.375000 0.000000
vt 0.625000 0.000000
vt 0.625000 0.250000
vt 0.375000 0.250000
vt 0.625000 0.500000
vt 0.375000 0.500000
vt 0.625000 0.750000
vt 0.375000 0.750000
vt 0.625000 1.000000
vt 0.375000 1.000000
vt 0.875000 0.000000
vt 0.875000 0.250000
vt 0.125000 0.000000
vt 0.125000 0.250000
vn -0.082184 -0.704715 0.704715
vn -0.082184 -0.704715 0.704715
vn -0.082184 -0.704715 0.704715
vn -0.082184 -0.704715 0.704715
vn -0.082184 0.704715 0.704715
vn -0.082184 0.704715 0.704715
vn -0.082184 0.704715 0.704715
vn -0.082184 0.704715 0.704715
vn -0.082184 0.704715 -0.704715
vn -0.082184 0.704715 -0.704715
vn -0.082184 0.704715 -0.704715
vn -0.082184 0.704715 -0.704715
vn -0.082184 -0.704715 -0.704715
vn -0.082184 -0.704715 -0.704715
vn -0.082184 -0.704715 -0.704715
vn -0.082184 -0.704715 -0.704715
vn 1.000000 0.000000 0.000000
vn 1.000000 0.000000 0.000000
vn 1.000000 0.000000 0.000000
vn 1.000000 0.000000 0.000000
vn -1.000000 0.000000 0.000000
vn -1.000000 0.000000 0.000000
vn -1.000000 0.000000 0.000000
vn -1.000000 0.000000 0.000000
s off
g B7a
usemtl lambert3SG
f 54/95/161 55/96/162 57/97/163 56/98/164
f 56/98/165 57/97/166 59/99/167 58/100/168
f 58/100/169 59/99/170 61/101/171 60/102/172
f 60/102/173 61/101/174 55/103/175 54/104/176
f 55/96/177 61/105/178 59/106/179 57/97/180
f 60/107/181 54/95/182 56/98/183 58/108/184
g default
v 3.594467 0.000000 0.432300
v 4.405533 0.000000 0.526886
v 3.594467 0.432300 0.000000
v 4.405533 0.526886 0.000000
v 3.594467 0.000000 -0.432300
v 4.405533 0.000000 -0.526886
v 3.594467 -0.432300 0.000000
v 4.405533 -0.526886 0.000000
vt 0.375000 0.000000
vt 0.625000 0.000000
vt 0.625000 0.250000
vt 0.375000 0.250000
vt 0.625000 0.500000
vt 0.375000 0.500000
vt 0.625000 0.750000
vt 0.375000 0.750000
vt 0.625000 1.000000
vt 0.375000 1.000000
vt 0.875000 0.000000
vt 0.875000 0.250000
vt 0.125000 0.000000
vt 0.125000 0.250000
vn -0.082184 0.704715 0.704715
vn -0.082184 0.704715 0.704715
vn -0.082184 0.704715 0.704715
vn -0.082184 0.704715 0.704715
vn -0.082184 0.704715 -0.704715
vn -0.082184 0.704715 -0.704715
vn -0.082184 0.704715 -0.704715
vn -0.082184 0.704715 -0.704715
vn -0.082184 -0.704715 -0.704715
vn -0.082184 -0.704715 -0.704715
vn -0.082184 -0.704715 -0.704715
vn -0.082184 -0.704715 -0.704715
vn -0.082184 -0.704715 0.704715
vn -0.082184 -0.704715 0.704715
vn -0.082184 -0.704715 0.704715
vn -0.082184 -0.704715 0.704715
vn 1.000000 0.000000 0.000000
vn 1.000000 0.000000 0.000000
vn 1.000000 0.000000 0.000000
vn 1.000000 0.000000 0.000000
vn -1.000000 0.000000 0.000000
vn -1.000000 0.000000 0.000000
vn -1.000000 0.000000 0.000000
vn -1.000000 0.000000 0.000000
s off
g B8a
usemtl lambert3SG
f 62/109/185 63/110/186 65/111/187 64/112/188
f 64/112/189 65/111/190 67/113/191 66/114/192
f 66/114/193 67/113/194 69/115/195 68/116/196
f 68/116/197 69/115/198 63/117/199 62/118/200
f 63/110/201 69/119/202 67/120/203 65/111/204
f 68/121/205 62/109/206 64/112/207 66/122/208
g default
v 4.601527 -0.000000 -0.491551
v 4.601527 0.491551 -0.000000
v 4.601527 0.000000 0.491551
v 4.601527 -0.491551 0.000000
v 5.398473 -0.000000 0.000000
vt 0.500000 0.000000
vt 0.750000 0.250000
vt 0.500000 0.500000
vt 0.250000 0.250000
vt 0.250000 0.500000
vt 0.375000 0.500000
vt 0.500000 1.000000
vt 0.500000 0.500000
vt 0.625000 0.500000
vt 0.750000 0.500000
vn -1.000000 0.000000 0.000000
vn -1.000000 0.000000 0.000000
vn -1.000000 0.000000 0.000000
vn -1.000000 0.000000 0.000000
vn 0.399771 0.648144 -0.648145
vn 0.399771 0.648144 -0.648145
vn 0.399771 0.648144 -0.648145
vn 0.399771 0.648145 0.648145
vn 0.399771 0.648145 0.648145
vn 0.399771 0.648145 0.648145
vn 0.399771 -0.648145 0.648145
vn 0.399771 -0.648145 0.648145
vn 0.399771 -0.648145 0.648145
vn 0.399771 -0.648145 -0.648145
vn 0.399771 -0.648145 -0.648145
vn 0.399771 -0.648145 -0.648145
s off
g Taila
usemtl blinn1SG
f 70/123/209 73/124/210 72/125/211 71/126/212
f 70/127/213 71/128/214 74/129/215
f 71/128/216 72/130/217 74/129/218
f 72/130/219 73/131/220 74/129/221
f 73/131/222 70/132/223 74/129/224
